<svg width="24" height="24" viewBox="0 0 24 24" fill="none" xmlns="http://www.w3.org/2000/svg">
<g id="eye-off">
<g id="Frame">
<path id="Vector" d="M6.56146 17.5252C4.5375 16.3391 2.95733 14.5233 2.06226 12.3549C1.97879 12.1304 1.97864 11.8834 2.06185 11.6589C2.42882 10.7677 2.91401 9.92987 3.50437 9.16802" stroke="#3A2449" stroke-width="2" stroke-linecap="round" stroke-linejoin="round"/>
<path id="Vector_2" d="M13.2712 18.9232C10.9419 19.2022 8.58543 18.7112 6.56147 17.5252" stroke="#D72638" stroke-width="2" stroke-linecap="round" stroke-linejoin="round"/>
<path id="Vector_3" d="M14.0891 9.95497C14.6505 10.5059 14.9731 11.2554 14.9873 12.0419C15.0015 12.8284 14.7063 13.589 14.1652 14.1599C13.624 14.7308 12.8803 15.0664 12.0942 15.0943C11.3081 15.1222 10.5424 14.8402 9.9622 14.309" stroke="#D72638" stroke-width="2" stroke-linecap="round" stroke-linejoin="round"/>
<path id="Vector_4" d="M9.87956 14.1091C9.27154 13.5528 8.92805 12.8004 8.92307 12.0138C8.91809 11.2272 9.25202 10.4693 9.85294 9.90351C10.4539 9.33769 11.2737 9.00914 12.1359 8.98864C12.998 8.96813 13.8335 9.2573 14.4624 9.79387" stroke="#3A2449" stroke-width="2" stroke-linecap="round" stroke-linejoin="round"/>
<path id="Vector_5" d="M6.51779 6.50423C7.84384 5.71767 9.32357 5.22555 10.8566 5.06126C12.3896 4.89698 13.94 5.06437 15.4026 5.55208M21.9378 11.6461C22.0213 11.8705 22.0215 12.1175 21.9383 12.3421" stroke="#3A2449" stroke-width="2" stroke-linecap="round" stroke-linejoin="round"/>
<path id="Vector_6" d="M19.5 7.99999C20.6276 9.05146 21.3493 10.2211 21.9379 11.6461" stroke="#D72638" stroke-width="2" stroke-linecap="round" stroke-linejoin="round"/>
<path id="Vector_7" d="M21.9383 12.3421C21.0529 14.4927 19.4939 16.2983 17.4953 17.4877" stroke="#D72638" stroke-width="2" stroke-linecap="round" stroke-linejoin="round"/>
<path id="Vector_8" d="M2.00003 22L22 1.99998" stroke="#3A2449" stroke-width="2" stroke-linecap="round" stroke-linejoin="round"/>
<path id="Vector_9" d="M15.4026 5.55208L17.5759 6.55793L19.3334 7.88788" stroke="#3A2449" stroke-width="2" stroke-linecap="round" stroke-linejoin="round"/>
</g>
</g>
</svg>
